<?xml version="1.0" encoding="UTF-8" standalone="no"?>
<!-- Created with Inkscape (http://www.inkscape.org/) -->

<svg
   xmlns:dc="http://purl.org/dc/elements/1.1/"
   xmlns:cc="http://creativecommons.org/ns#"
   xmlns:rdf="http://www.w3.org/1999/02/22-rdf-syntax-ns#"
   xmlns:svg="http://www.w3.org/2000/svg"
   xmlns="http://www.w3.org/2000/svg"
   xmlns:sodipodi="http://sodipodi.sourceforge.net/DTD/sodipodi-0.dtd"
   xmlns:inkscape="http://www.inkscape.org/namespaces/inkscape"
   version="1.1"
   id="svg1670"
   width="730.3382"
   height="195.09265"
   viewBox="0 0 730.3382 195.09265"
   sodipodi:docname="banner.svg"
   inkscape:version="0.92.5 (2060ec1f9f, 2020-04-08)"
   inkscape:export-filename="/home/tylere/Documents/ByteDeck/Bytedeck-Logo-Pack/banner-setup.png"
   inkscape:export-xdpi="206.36"
   inkscape:export-ydpi="206.36">
  <metadata
     id="metadata1676">
    <rdf:RDF>
      <cc:Work
         rdf:about="">
        <dc:format>image/svg+xml</dc:format>
        <dc:type
           rdf:resource="http://purl.org/dc/dcmitype/StillImage" />
        <dc:title></dc:title>
      </cc:Work>
    </rdf:RDF>
  </metadata>
  <defs
     id="defs1674" />
  <sodipodi:namedview
     pagecolor="#ffffff"
     bordercolor="#666666"
     borderopacity="1"
     objecttolerance="10"
     gridtolerance="10"
     guidetolerance="10"
     inkscape:pageopacity="0"
     inkscape:pageshadow="2"
     inkscape:window-width="1848"
     inkscape:window-height="1016"
     id="namedview1672"
     showgrid="false"
     inkscape:pagecheckerboard="true"
     fit-margin-top="0"
     fit-margin-left="100"
     fit-margin-right="100"
     fit-margin-bottom="0"
     inkscape:zoom="1.3111111"
     inkscape:cx="388.81735"
     inkscape:cy="121.35872"
     inkscape:window-x="72"
     inkscape:window-y="27"
     inkscape:window-maximized="1"
     inkscape:current-layer="svg1670" />
  <g
     id="g2378"
     transform="translate(-7.3244166,-138.07509)"
     inkscape:export-filename="/home/tylere/Documents/ByteDeck/wordmark-v2.png"
     inkscape:export-xdpi="90.510002"
     inkscape:export-ydpi="90.510002">
    <rect
       y="139.42339"
       x="157.75073"
       height="14.022287"
       width="14.022287"
       id="rect2223"
       style="opacity:1;fill:#f0cd40;fill-opacity:1;stroke:#efcd41;stroke-width:0;stroke-miterlimit:4;stroke-dasharray:none;stroke-opacity:1" />
    <rect
       y="138.07509"
       x="187.68292"
       height="28.583893"
       width="28.583893"
       id="rect2225"
       style="opacity:1;fill:#25408f;fill-opacity:1;stroke:#efcd41;stroke-width:0;stroke-miterlimit:4;stroke-dasharray:none;stroke-opacity:1" />
    <rect
       y="166.11966"
       x="141.03185"
       height="46.381413"
       width="46.381413"
       id="rect2227"
       style="opacity:0;fill:#6aa5d9;fill-opacity:1;stroke:#efcd41;stroke-width:0;stroke-miterlimit:4;stroke-dasharray:none;stroke-opacity:1" />
    <rect
       y="218.16393"
       x="107.32442"
       height="33.168102"
       width="33.168102"
       id="rect2229"
       style="opacity:0;fill:#6aa5d9;fill-opacity:1;stroke:#efcd41;stroke-width:0;stroke-miterlimit:4;stroke-dasharray:none;stroke-opacity:1" />
    <rect
       y="166.11966"
       x="141.03185"
       height="46.381409"
       width="46.381409"
       id="rect2231"
       style="opacity:1;fill:#7fc2e6;fill-opacity:1;stroke:#efcd41;stroke-width:0;stroke-miterlimit:4;stroke-dasharray:none;stroke-opacity:1" />
    <rect
       y="218.16393"
       x="107.32442"
       height="33.168106"
       width="33.168106"
       id="rect2233"
       style="opacity:1;fill:#6aa5d9;fill-opacity:1;stroke:#efcd41;stroke-width:0;stroke-miterlimit:4;stroke-dasharray:none;stroke-opacity:1" />
    <rect
       y="251.33203"
       x="140.49252"
       height="20.224443"
       width="20.763779"
       id="rect2235"
       style="opacity:1;fill:#f0cd40;fill-opacity:1;stroke:#efcd41;stroke-width:0;stroke-miterlimit:4;stroke-dasharray:none;stroke-opacity:1" />
    <rect
       y="221.66949"
       x="150.20027"
       height="20.494112"
       width="20.494112"
       id="rect2237"
       style="opacity:1;fill:#25408f;fill-opacity:1;stroke:#efcd41;stroke-width:0;stroke-miterlimit:4;stroke-dasharray:none;stroke-opacity:1" />
    <g
       id="text2280"
       style="font-style:normal;font-variant:normal;font-weight:600;font-stretch:semi-condensed;font-size:96px;line-height:1.25;font-family:'Barlow Semi Condensed';-inkscape-font-specification:'Barlow Semi Condensed, Semi-Bold Semi-Condensed';font-variant-ligatures:normal;font-variant-caps:normal;font-variant-numeric:normal;font-feature-settings:normal;text-align:start;letter-spacing:0px;word-spacing:0px;writing-mode:lr-tb;text-anchor:start;fill:#6aa5d9;fill-opacity:1;stroke:none"
       aria-label="BYTEDECK">
      <path
         id="path2344"
         style="letter-spacing:6px;fill:#6aa5d9;fill-opacity:1"
         d="m 241.61542,235.59661 q 0,8.928 -5.664,13.728 -5.568,4.704 -14.592,4.704 h -20.448 q -0.48,0 -0.864,-0.288 -0.288,-0.384 -0.288,-0.864 v -64.896 q 0,-0.48 0.288,-0.768 0.384,-0.384 0.864,-0.384 h 19.296 q 9.696,0 15.072,4.608 5.472,4.512 5.472,13.536 0,9.888 -7.776,14.016 -0.48,0.288 -0.096,0.576 8.736,4.704 8.736,16.032 z m -30.24,-39.168 q -0.48,0 -0.48,0.48 v 17.856 q 0,0.48 0.48,0.48 h 8.928 q 4.512,0 7.008,-2.4 2.592,-2.496 2.592,-6.912 0,-4.512 -2.592,-7.008 -2.496,-2.496 -7.008,-2.496 z m 9.6,47.904 q 4.416,0 6.912,-2.688 2.592,-2.688 2.592,-7.488 0,-4.8 -2.592,-7.488 -2.592,-2.784 -7.008,-2.784 h -9.504 q -0.48,0 -0.48,0.48 v 19.488 q 0,0.48 0.48,0.48 z"
         inkscape:connector-curvature="0" />
      <path
         id="path2346"
         style="letter-spacing:6px;fill:#6aa5d9;fill-opacity:1"
         d="m 269.69533,253.93261 q -0.48,0 -0.864,-0.288 -0.288,-0.384 -0.288,-0.864 v -25.92 l -0.096,-0.576 -16.608,-38.112 q -0.096,-0.192 -0.096,-0.576 0,-0.768 0.96,-0.768 h 9.408 q 1.056,0 1.344,0.864 l 10.368,25.92 q 0.288,0.672 0.576,0 l 10.272,-25.92 q 0.288,-0.864 1.344,-0.864 h 9.504 q 0.672,0 0.864,0.384 0.192,0.384 0,0.96 l -16.704,38.112 -0.096,0.576 v 25.92 q 0,0.48 -0.384,0.864 -0.288,0.288 -0.768,0.288 z"
         inkscape:connector-curvature="0" />
      <path
         id="path2348"
         style="letter-spacing:6px;fill:#6aa5d9;fill-opacity:1"
         d="m 350.86332,186.82861 q 0.48,0 0.768,0.384 0.384,0.288 0.384,0.768 v 7.392 q 0,0.48 -0.384,0.864 -0.288,0.288 -0.768,0.288 h -14.88 q -0.48,0 -0.48,0.48 v 55.872 q 0,0.48 -0.384,0.864 -0.288,0.288 -0.768,0.288 h -8.832 q -0.48,0 -0.864,-0.288 -0.288,-0.384 -0.288,-0.864 v -55.872 q 0,-0.48 -0.48,-0.48 h -14.304 q -0.48,0 -0.864,-0.288 -0.288,-0.384 -0.288,-0.864 v -7.392 q 0,-0.48 0.288,-0.768 0.384,-0.384 0.864,-0.384 z"
         inkscape:connector-curvature="0" />
      <path
         id="path2350"
         style="letter-spacing:6px;fill:#6aa5d9;fill-opacity:1"
         d="m 406.59121,195.27661 q 0,0.48 -0.384,0.864 -0.288,0.288 -0.768,0.288 h -26.688 q -0.48,0 -0.48,0.48 v 18.048 q 0,0.48 0.48,0.48 h 17.088 q 0.48,0 0.768,0.384 0.384,0.288 0.384,0.768 v 7.296 q 0,0.48 -0.384,0.864 -0.288,0.288 -0.768,0.288 h -17.088 q -0.48,0 -0.48,0.48 v 18.432 q 0,0.48 0.48,0.48 h 26.688 q 0.48,0 0.768,0.384 0.384,0.288 0.384,0.768 v 7.296 q 0,0.48 -0.384,0.864 -0.288,0.288 -0.768,0.288 h -37.152 q -0.48,0 -0.864,-0.288 -0.288,-0.384 -0.288,-0.864 v -64.896 q 0,-0.48 0.288,-0.768 0.384,-0.384 0.864,-0.384 h 37.152 q 0.48,0 0.768,0.384 0.384,0.288 0.384,0.768 z"
         inkscape:connector-curvature="0" />
      <path
         id="path2352"
         style="letter-spacing:6px;fill:#6aa5d9;fill-opacity:1"
         d="m 423.53507,254.02861 q -0.48,0 -0.864,-0.288 -0.288,-0.384 -0.288,-0.864 v -64.896 q 0,-0.48 0.288,-0.768 0.384,-0.384 0.864,-0.384 h 19.872 q 9.312,0 14.88,5.184 5.664,5.184 5.664,13.824 v 29.184 q 0,8.64 -5.664,13.824 -5.568,5.184 -14.88,5.184 z m 9.984,-10.08 q 0,0.48 0.48,0.48 l 9.504,-0.096 q 4.128,0 6.624,-2.784 2.496,-2.88 2.688,-7.776 v -26.688 q 0,-4.896 -2.592,-7.776 -2.496,-2.88 -6.72,-2.88 h -9.504 q -0.48,0 -0.48,0.48 z"
         inkscape:connector-curvature="0" />
      <path
         id="path2354"
         style="letter-spacing:6px;fill:#6aa5d9;fill-opacity:1"
         d="m 519.96682,195.27661 q 0,0.48 -0.384,0.864 -0.288,0.288 -0.768,0.288 h -26.688 q -0.48,0 -0.48,0.48 v 18.048 q 0,0.48 0.48,0.48 h 17.088 q 0.48,0 0.768,0.384 0.384,0.288 0.384,0.768 v 7.296 q 0,0.48 -0.384,0.864 -0.288,0.288 -0.768,0.288 h -17.088 q -0.48,0 -0.48,0.48 v 18.432 q 0,0.48 0.48,0.48 h 26.688 q 0.48,0 0.768,0.384 0.384,0.288 0.384,0.768 v 7.296 q 0,0.48 -0.384,0.864 -0.288,0.288 -0.768,0.288 h -37.152 q -0.48,0 -0.864,-0.288 -0.288,-0.384 -0.288,-0.864 v -64.896 q 0,-0.48 0.288,-0.768 0.384,-0.384 0.864,-0.384 h 37.152 q 0.48,0 0.768,0.384 0.384,0.288 0.384,0.768 z"
         inkscape:connector-curvature="0" />
      <path
         id="path2356"
         style="letter-spacing:6px;fill:#6aa5d9;fill-opacity:1"
         d="m 555.43869,254.79661 q -6.24,0 -11.04,-2.496 -4.8,-2.592 -7.488,-7.2 -2.592,-4.608 -2.592,-10.656 v -28.224 q 0,-6.048 2.592,-10.56 2.688,-4.608 7.488,-7.104 4.8,-2.496 11.04,-2.496 6.24,0 11.04,2.496 4.8,2.4 7.392,6.912 2.688,4.416 2.688,10.368 v 0.576 q 0,0.48 -0.384,0.864 -0.288,0.384 -0.768,0.384 l -8.928,0.384 q -1.152,0 -1.152,-1.152 v -1.152 q 0,-4.512 -2.784,-7.296 -2.688,-2.784 -7.104,-2.784 -4.512,0 -7.296,2.784 -2.688,2.784 -2.688,7.296 v 29.472 q 0,4.512 2.688,7.296 2.784,2.688 7.296,2.688 4.416,0 7.104,-2.688 2.784,-2.784 2.784,-7.296 v -1.248 q 0,-1.056 1.152,-1.056 l 8.928,0.384 q 0.48,0 0.768,0.384 0.384,0.288 0.384,0.768 v 0.384 q 0,5.952 -2.688,10.56 -2.592,4.512 -7.392,7.008 -4.8,2.4 -11.04,2.4 z"
         inkscape:connector-curvature="0" />
      <path
         id="path2358"
         style="letter-spacing:6px;fill:#6aa5d9;fill-opacity:1"
         d="m 594.07859,254.02861 q -0.48,0 -0.864,-0.288 -0.288,-0.384 -0.288,-0.864 v -64.896 q 0,-0.48 0.288,-0.768 0.384,-0.384 0.864,-0.384 h 8.832 q 0.48,0 0.768,0.384 0.384,0.288 0.384,0.768 v 27.648 q 0,0.288 0.192,0.384 0.192,0.096 0.384,-0.192 l 19.68,-28.224 q 0.48,-0.768 1.344,-0.768 h 9.696 q 0.672,0 0.864,0.48 0.288,0.384 -0.096,0.96 l -18.144,26.976 q -0.096,0.288 0,0.672 l 19.488,36.768 q 0.192,0.384 0.192,0.576 0,0.768 -0.96,0.768 h -9.792 q -0.96,0 -1.44,-0.864 l -15.168,-28.608 q -0.096,-0.288 -0.288,-0.288 -0.192,0 -0.384,0.192 l -5.376,7.392 q -0.192,0.384 -0.192,0.576 v 20.448 q 0,0.48 -0.384,0.864 -0.288,0.288 -0.768,0.288 z"
         inkscape:connector-curvature="0" />
    </g>
  </g>
  <text
     xml:space="preserve"
     style="font-style:normal;font-variant:normal;font-weight:normal;font-stretch:semi-condensed;font-size:18.66666603px;line-height:1.25;font-family:'Barlow Semi Condensed';-inkscape-font-specification:'Barlow Semi Condensed, Semi-Condensed';font-variant-ligatures:normal;font-variant-caps:normal;font-variant-numeric:normal;font-feature-settings:normal;text-align:center;letter-spacing:0px;word-spacing:0px;writing-mode:lr-tb;text-anchor:middle;fill:#000000;fill-opacity:1;stroke:none"
     x="365.74927"
     y="167.99779"
     id="text831"><tspan
       sodipodi:role="line"
       x="365.74927"
       y="167.99779"
       id="tspan841">To customize this banner and other settings on your deck, go to</tspan><tspan
       sodipodi:role="line"
       x="365.74927"
       y="191.33112"
       id="tspan845">Admin &gt; Site Configuration</tspan></text>
  <text
     xml:space="preserve"
     style="font-style:normal;font-weight:normal;font-size:40px;line-height:1.25;font-family:sans-serif;letter-spacing:0px;word-spacing:0px;fill:#000000;fill-opacity:1;stroke:none"
     x="105.39319"
     y="259.68198"
     id="text837"><tspan
       sodipodi:role="line"
       id="tspan835"
       x="105.39319"
       y="295.0726" /></text>
</svg>
