<svg version="1" xmlns="http://www.w3.org/2000/svg" width="346.667" height="346.667" viewBox="0 0 260.000000 260.000000"><path d="M155.9 1.2c-.1.2-.2 12.4-.3 27.1-.1 23.1.1 27 1.4 27.6 1.1.5 45.5.7 52.8.2.9-.1 1.2-6.3 1.2-27.6V1h-27.5c-15.1 0-27.6.1-27.6.2zM97.7 4.5c-.3.8-.1 23.5.2 25.8.1.4 6.1.6 13.4.5l13.2-.3.2-13.3c.1-9.5-.2-13.2-1-13.3-6.4-.7-25.7-.2-26 .6zM65.6 55.8c-.3.5-.5 20.7-.5 45l.1 44.2H155V55h-44.4c-24.5 0-44.7.4-45 .8zM180.2 95.9c-.9.6-1.2 15.5-1 64.7l.3 63.9 24.7.2c20 .2 25.8-.1 30-1.4 11.7-3.4 18.2-8.6 22.6-18 2.4-5.2 2.7-6.9 2.6-16.3 0-9.3-.4-11.2-2.8-16.2-2.4-5.2-7.6-10.9-12.2-13.7-1.8-1.1-1.8-1.1-.1-2.2 10.8-6.5 15.7-19.1 13.3-34.4-2.1-13.4-11.2-22.4-26.4-25.9-6.8-1.6-48.7-2.2-51-.7zm44.3 18.5c4.3.8 9.4 5 11.1 9.3 2.2 5.3 1.8 14.4-.8 18.3-4.6 6.8-6.6 7.5-21.1 7.8l-13.2.4v-35.7l3.5-.5c4.5-.6 16-.4 20.5.4zm4.2 54.7c13.1 6.3 12.9 29.2-.2 35.5-2.5 1.2-6.7 1.7-14.3 1.8-5.9.1-11.4.1-12.2-.1-1.3-.3-1.5-3.2-1.4-19.1.1-10.3.2-19 .3-19.5 0-.4 5.4-.7 11.8-.7 9.8 0 12.4.3 16 2.1zM1.7 155.8C.1 156.1 0 159 0 188.1V220h32c24.9 0 32-.3 32.1-1.3.4-5.4 0-61.9-.4-62.3-.6-.6-59.2-1.1-62-.6zM84 162.8c-.6.2-1 7.7-1 19.8V202l5.5.1h24.9l9.4-.1-.1-19.7-.2-19.7-18.8-.1c-10.3 0-19.2.1-19.7.3zM64.7 220.7c-.2.5-.4 9.2-.4 19.6l-.1 18.7 20.1-.2 20.2-.3V220H84.8c-10.8 0-19.9.3-20.1.7z"/></svg>